<svg xmlns="http://www.w3.org/2000/svg" viewBox="0 0 1440 320"><path fill="#eeeeee" fill-opacity="1" d="M0,256L24,229.3C48,203,96,149,144,149.3C192,149,240,203,288,202.7C336,203,384,149,432,117.3C480,85,528,75,576,101.3C624,128,672,192,720,234.7C768,277,816,299,864,293.3C912,288,960,256,1008,202.7C1056,149,1104,75,1152,74.7C1200,75,1248,149,1296,170.7C1344,192,1392,160,1416,144L1440,128L1440,0L1416,0C1392,0,1344,0,1296,0C1248,0,1200,0,1152,0C1104,0,1056,0,1008,0C960,0,912,0,864,0C816,0,768,0,720,0C672,0,624,0,576,0C528,0,480,0,432,0C384,0,336,0,288,0C240,0,192,0,144,0C96,0,48,0,24,0L0,0Z"></path></svg>